<?xml version="1.0" encoding="UTF-8"?>
<svg width="107px" height="17px" viewBox="0 0 107 17" version="1.1" xmlns="http://www.w3.org/2000/svg" xmlns:xlink="http://www.w3.org/1999/xlink">
    <!-- Generator: Sketch 55.2 (78181) - https://sketchapp.com -->
    <title>Shape</title>
    <desc>Created with Sketch.</desc>
    <g id="Page-1" stroke="none" stroke-width="1" fill="none" fill-rule="evenodd">
        <g id="Tablet" transform="translate(-477.000000, -360.000000)" fill="#383C93" fill-rule="nonzero">
            <path d="M483.79798,361.515519 C483.405654,361.412216 482.868251,361.371008 482.166015,361.371008 L479.046033,361.371008 L477.599788,373.291519 L481.2154,373.291519 C481.959409,373.291519 482.558342,373.209103 483.012763,373.064591 C483.408472,372.924642 483.768225,372.698687 484.066117,372.402999 C484.912864,371.617782 485.346964,370.627087 485.346964,369.407206 C485.346964,368.642875 485.140357,368.023621 484.748031,367.548313 C484.441196,367.173223 484.007669,366.923428 483.529279,366.846077 L483.529279,366.804304 C484.748031,366.081746 485.36785,365.069036 485.36785,363.78819 C485.36785,363.106276 485.203017,362.528229 484.831012,362.135338 C484.583197,361.845751 484.232079,361.639709 483.79798,361.515519 L483.79798,361.515519 Z M483.425976,362.817252 C483.715563,363.085954 483.839189,363.457394 483.839189,363.994796 C483.839189,364.86243 483.611696,365.502571 483.136953,365.93667 C482.744626,366.266902 482.207224,366.453186 481.567083,366.453186 L479.852137,366.453186 L480.368653,362.445248 L482.186902,362.445248 C482.744626,362.445248 483.157275,362.58976 483.425976,362.817252 L483.425976,362.817252 Z M483.632582,370.791356 C483.488071,371.122152 483.322673,371.390289 483.157275,371.576573 C482.702853,371.989786 482.145129,372.217279 481.484101,372.217279 L479.170223,372.217279 L479.727947,367.589521 L481.752803,367.589521 C483.199047,367.589521 483.901283,368.209905 483.901283,369.448979 C483.901283,369.902836 483.818867,370.357257 483.632582,370.791356 L483.632582,370.791356 Z M497.226267,360.069275 L495.925098,360.069275 L495.925098,373.290955 L497.226267,373.290955 L497.226267,360.069275 Z M492.123766,372.6717 C492.826002,372.175506 493.198007,371.47327 493.30131,370.605636 L492.019899,370.605636 C491.985521,371.018949 491.819072,371.410234 491.545155,371.721649 C491.173151,372.176071 490.677521,372.402999 490.03738,372.402999 C489.004348,372.402999 488.487832,371.681006 488.487832,370.21331 C488.487832,370.047912 488.508719,369.635828 488.570249,368.974236 L493.569447,368.974236 C493.631541,368.58191 493.67275,368.14781 493.67275,367.693389 C493.67275,366.660357 493.507352,365.937235 493.197442,365.524022 C492.722135,364.862994 491.957804,364.553085 490.96598,364.553085 C489.953835,364.553085 489.127409,364.925089 488.466381,365.709742 C487.516331,366.804304 487.041023,368.354417 487.041023,370.357821 C487.041023,371.184811 487.268516,371.887047 487.702051,372.48598 C487.866884,372.712908 488.115264,372.899193 488.445495,373.085477 C488.858708,373.312406 489.334015,373.415144 489.870853,373.415144 C490.759938,373.41458 491.503383,373.16733 492.123766,372.6717 L492.123766,372.6717 Z M490.946223,365.543779 C491.60725,365.543779 492.040785,365.833367 492.247391,366.453186 C492.412789,366.907607 492.453998,367.444445 492.329808,368.064265 L488.694439,368.064265 C488.774268,367.473405 489.0016,366.912161 489.355466,366.4323 C489.789001,365.833367 490.326404,365.543779 490.946223,365.543779 L490.946223,365.543779 Z M517.720379,362.651854 L516.356551,362.920556 L516.129058,364.73824 L514.992723,364.73824 L514.88942,365.647083 L516.005433,365.647083 L515.364728,370.77047 C515.303197,371.080379 515.282311,371.451819 515.282311,371.907369 C515.282311,372.898628 515.798827,373.41458 516.831859,373.41458 C517.409905,373.41458 517.906099,373.311841 518.257217,373.146443 L518.381407,372.217279 C518.381407,372.175506 518.36052,372.175506 518.340198,372.175506 C518.278104,372.196393 518.195122,372.238165 518.112706,372.257923 C517.926421,372.319453 517.740701,372.34034 517.575303,372.34034 C516.955484,372.34034 516.645574,372.051316 516.645574,371.432062 C516.645574,371.080379 516.666461,370.812243 516.687347,370.646845 L517.348375,365.626196 L518.732525,365.626196 L518.856714,364.737676 L517.451678,364.737676 L517.720379,362.651854 L517.720379,362.651854 Z M503.362364,364.614615 C502.783753,364.614615 502.308445,364.655824 501.957327,364.780013 C501.585323,364.883316 501.255092,365.069036 500.945182,365.316851 C500.242946,365.854254 499.91215,366.55649 499.891264,367.486218 L501.11058,367.486218 C501.255092,366.184485 501.895797,365.544344 502.990359,365.544344 C503.940975,365.544344 504.374509,366.06086 504.271206,367.073006 L504.147581,368.106037 L502.990359,368.229663 C501.626531,368.436834 500.697367,368.725857 500.22206,369.097297 C499.519824,369.635264 499.168706,370.399594 499.168706,371.41174 C499.168706,371.990351 499.292895,372.444772 499.561032,372.796454 C499.891264,373.208538 500.387458,373.415144 501.048485,373.415144 C501.585888,373.415144 502.12329,373.291519 502.660128,373.003061 C503.134871,372.755246 503.445345,372.548639 503.56897,372.383241 L503.610179,372.402999 C503.586257,372.511755 503.572462,372.622494 503.56897,372.733795 C503.56897,372.920079 503.589292,373.064591 503.651387,373.147008 C503.713482,373.250875 503.87888,373.291519 504.126695,373.291519 L505.118518,373.291519 L505.139405,373.147008 C505.139405,373.085477 505.139405,373.04314 505.118518,373.04314 C504.911912,372.898628 504.829495,372.588719 504.911912,372.113976 L505.552053,366.432864 C505.572939,365.833367 505.345447,365.358624 504.932234,365.048714 C504.560229,364.759127 504.023391,364.614615 503.362364,364.614615 L503.362364,364.614615 Z M501.688626,372.465094 C501.213319,372.444207 500.883087,372.238165 500.717689,371.865596 C500.593499,371.721085 500.531405,371.47327 500.531405,371.101266 C500.572613,370.584185 500.758897,370.129764 501.110015,369.779211 C501.522664,369.344547 502.514487,369.076975 504.022827,368.973107 C503.981619,369.509945 503.898637,369.964366 503.857429,370.356692 C503.733239,371.079815 503.506311,371.596895 503.175515,371.926562 C502.68045,372.278809 502.18482,372.465094 501.688626,372.465094 L501.688626,372.465094 Z M512.452481,369.386884 C512.195359,369.057246 511.862214,368.794798 511.481544,368.621989 L510.448512,368.229663 C510.014412,368.085716 509.746276,367.982412 509.642408,367.920318 C509.394593,367.75492 509.250082,367.610408 509.167665,367.486218 C509.064362,367.32082 509.023153,367.1351 509.023153,366.866399 C509.023153,366.55649 509.147343,366.266902 509.41548,365.998765 C509.725389,365.688856 510.158924,365.523458 510.696326,365.543779 C511.171634,365.543779 511.501865,365.709178 511.68815,366.060295 C511.87387,366.370205 511.915643,366.742209 511.81234,367.196631 L513.031092,367.196631 C513.072864,367.010911 513.093186,366.804304 513.093186,366.576811 C513.093186,366.039974 512.928353,365.605874 512.57667,365.254756 C512.204666,364.820657 511.584847,364.614615 510.717213,364.593729 C509.890787,364.593729 509.208873,364.841544 508.651149,365.337173 C508.072538,365.874576 507.783515,366.514717 507.783515,367.279047 C507.783515,367.898867 507.969799,368.394496 508.341239,368.746179 C508.568732,368.952221 508.91985,369.138505 509.353385,369.283017 L510.427625,369.675343 C510.779308,369.840741 511.047444,370.006139 511.171634,370.129764 C511.37824,370.336935 511.481544,370.625958 511.481544,370.956754 C511.481544,371.328194 511.357354,371.65899 511.150748,371.948013 C510.840838,372.319453 510.407303,372.484851 509.828692,372.484851 C509.167665,372.465094 508.754452,372.257923 508.547846,371.824388 C508.403334,371.493592 508.383012,371.101266 508.506637,370.646845 L507.204904,370.646845 C507.163696,370.749583 507.142809,370.956754 507.142809,371.28755 C507.142809,371.907369 507.287321,372.361226 507.556022,372.671136 C507.990121,373.16733 508.651149,373.414015 509.6012,373.456353 C510.593023,373.456353 511.377676,373.16733 511.935965,372.609605 C512.493689,372.134298 512.76239,371.472706 512.782712,370.625958 C512.782712,370.108878 512.679409,369.696794 512.452481,369.386884 Z M540.487162,365.688291 L540.589901,364.737676 L536.789698,364.655259 C535.880291,364.655259 535.156604,364.985491 534.579122,365.626196 C534.082928,366.204243 533.814227,366.886157 533.773019,367.69226 C533.752132,368.332401 533.876886,368.89069 534.144459,369.365433 C534.330743,369.696229 534.579122,369.944044 534.846695,370.067669 C534.082364,370.583621 533.669151,371.079815 533.669151,371.576009 C533.669151,372.009544 533.876322,372.382112 534.28897,372.670571 C533.132313,373.124992 532.533945,373.807471 532.533945,374.715749 C532.533945,375.377341 532.884498,375.872406 533.565848,376.244975 C534.186796,376.574642 534.950562,376.74004 535.839083,376.74004 C536.953967,376.74004 537.88426,376.471903 538.62714,375.914179 C539.412357,375.377341 539.804684,374.694862 539.804684,373.889888 C539.804684,373.166765 539.350262,372.670571 538.421098,372.401305 C538.012419,372.308652 537.598695,372.239855 537.182024,372.195264 C536.603413,372.112847 536.210523,372.050752 536.024238,372.008979 C535.466514,371.864467 535.177491,371.596895 535.177491,371.204004 C535.177491,370.996834 535.322002,370.728697 535.612154,370.439109 C535.79731,370.521526 536.148992,370.563863 536.664944,370.563863 C537.450161,370.563863 538.132639,370.253954 538.710121,369.634699 C538.93705,369.427528 539.102448,369.117619 539.246959,368.704406 C539.433244,368.270871 539.537111,367.836772 539.537111,367.403237 C539.537111,366.55649 539.310183,365.956992 538.875519,365.626761 L539.185429,365.667969 L540.487162,365.688291 Z M537.759506,369.118183 C537.470483,369.469865 537.078157,369.635264 536.602849,369.635264 C536.148428,369.635264 535.756101,369.489623 535.465949,369.179713 C535.176926,368.869804 535.032415,368.436834 535.032415,367.919753 C535.032415,367.176309 535.218699,366.597698 535.548366,366.163599 C535.879162,365.771272 536.292375,365.564666 536.808326,365.564666 C537.758942,365.564666 538.23369,366.184485 538.23369,367.403237 C538.234814,368.146681 538.069416,368.725292 537.759506,369.118183 L537.759506,369.118183 Z M535.012093,373.04314 C535.301116,373.147008 535.693442,373.208538 536.148992,373.270068 L537.263877,373.41458 C538.028772,373.560221 538.421663,373.827793 538.421663,374.24157 C538.421663,374.737764 538.173848,375.13009 537.677654,375.419114 C537.244119,375.688379 536.707281,375.81144 536.107784,375.81144 C535.487965,375.81144 534.991771,375.708701 534.599444,375.50153 C534.16591,375.274602 533.938981,374.943806 533.938981,374.510271 C533.938981,374.117945 534.083493,373.766262 534.414289,373.456353 C534.619766,373.250311 534.806051,373.10467 535.012093,373.04314 L535.012093,373.04314 Z M522.678933,364.820657 L521.3772,364.820657 L520.365054,373.290955 L521.666223,373.290955 L522.678933,364.820657 Z M523.091581,361.556728 L521.77009,361.556728 L521.604692,363.023859 L522.905861,363.023859 L523.091581,361.556728 Z M527.079197,364.800335 L525.777464,364.800335 L524.785641,373.291519 L526.087374,373.291519 L526.727515,367.817014 C526.810496,367.218082 526.934686,366.783982 527.120406,366.494959 C527.471524,365.916913 528.050135,365.607003 528.835352,365.607003 C529.413963,365.607003 529.806289,365.833932 530.012895,366.247144 C530.157407,366.536168 530.219502,366.887286 530.157407,367.321385 L529.455171,373.292084 L530.777226,373.292084 L531.500348,366.619149 C531.500348,366.123519 531.396481,365.68942 531.169552,365.359189 C530.81787,364.883881 530.281032,364.636066 529.537588,364.636066 C528.93809,364.636066 528.442461,364.739369 528.070456,364.945976 C527.636357,365.152582 527.264353,365.421283 526.97533,365.751515 L527.079197,364.800335 L527.079197,364.800335 Z M546.74632,361.288591 L546.622695,362.156225 L547.800238,362.156225 L547.387025,365.647647 C547.242514,365.317416 546.994699,365.048714 546.663903,364.842108 C546.315315,364.652622 545.924893,364.55327 545.528132,364.553085 C544.43357,364.553085 543.565372,364.987184 542.904344,365.87514 C542.160335,366.928494 541.788331,368.395061 541.788331,370.275969 C541.788331,371.349645 542.036146,372.155749 542.511453,372.712344 C542.944988,373.167894 543.523599,373.41458 544.246721,373.41458 C544.907184,373.41458 545.445151,373.229424 545.920459,372.857985 C546.395766,372.527189 546.705676,372.175506 546.849623,371.804066 C546.70075,372.285913 546.624273,372.787201 546.622695,373.291519 L548.8948,373.291519 L548.977217,372.465658 L547.882655,372.465658 L549.183824,361.288591 L546.74632,361.288591 L546.74632,361.288591 Z M547.180983,367.176309 C547.180983,367.548313 547.119453,368.188454 547.015585,369.118183 C546.890831,370.130329 546.767771,370.750148 546.684789,370.957319 C546.436975,371.432626 546.209482,371.78318 545.961667,372.010108 C545.630871,372.30026 545.218787,372.444772 544.763237,372.444772 C544.247286,372.444772 543.875846,372.23873 543.60658,371.845275 C543.317557,371.433191 543.193367,370.854015 543.193367,370.110007 C543.193367,368.312644 543.483519,367.052684 544.041244,366.309239 C544.495665,365.771837 545.011616,365.482814 545.590227,365.482814 C546.044648,365.482814 546.396331,365.607003 546.684789,365.854818 C547.015585,366.163599 547.180983,366.597698 547.180983,367.176309 L547.180983,367.176309 Z M551.994461,363.002972 L553.274743,363.002972 L553.461028,361.515519 L552.159859,361.515519 L551.994461,363.002972 Z M553.068137,364.820657 L551.767533,364.820657 L550.796031,373.290955 L552.0972,373.290955 L553.068137,364.820657 Z M561.456582,368.973671 C561.538999,368.663762 561.580207,368.229663 561.580207,367.692825 C561.580207,366.576811 561.332393,365.792159 560.877971,365.316851 C560.464759,364.841544 559.804295,364.593729 558.894324,364.593729 C557.820648,364.593729 556.931563,365.027828 556.229327,365.915784 C555.919418,366.30811 555.609508,366.927929 555.340807,367.754355 C555.10347,368.509695 554.985202,369.297387 554.990254,370.08912 C554.990254,370.977641 555.134765,371.679877 555.465561,372.195828 C555.877645,373.001932 556.683749,373.414015 557.861292,373.414015 C558.728926,373.414015 559.514143,373.145879 560.196622,372.567268 C560.795555,372.09196 561.147237,371.451255 561.229654,370.667731 L559.969693,370.667731 C559.659784,371.906805 559.019078,372.505738 557.986046,372.505738 C556.911241,372.505738 556.374404,371.699634 556.374404,370.08912 C556.374404,369.798968 556.416176,369.427528 556.478271,368.973107 L561.456582,368.973107 L561.456582,368.973671 L561.456582,368.973671 Z M558.770699,365.543779 C559.555916,365.543779 560.05211,365.93667 560.237266,366.742209 C560.319682,367.176309 560.319682,367.63073 560.258152,368.085151 L556.622218,368.105473 C556.662862,367.734033 556.76673,367.382915 556.932128,367.010911 C557.076639,366.701001 557.221151,366.453186 557.386549,366.287788 C557.820084,365.792159 558.274505,365.543779 558.770699,365.543779 L558.770699,365.543779 Z M580.482999,364.73824 L579.326342,364.73824 L579.222474,365.647083 L580.359374,365.647083 L579.697782,370.77047 C579.654121,371.147828 579.633572,371.527503 579.636251,371.907369 C579.636251,372.898628 580.153332,373.41458 581.165477,373.41458 C581.76441,373.41458 582.239153,373.311841 582.611158,373.146443 L582.715025,372.217279 C582.715025,372.175506 582.715025,372.175506 582.694139,372.175506 C582.611722,372.196393 582.528741,372.238165 582.446324,372.257923 C582.273276,372.315345 582.091791,372.343207 581.909486,372.34034 C581.310553,372.34034 581.001208,372.051316 581.001208,371.432062 C581.001208,371.080379 581.001208,370.812243 581.041852,370.646845 L581.682558,365.626196 L583.08703,365.626196 L583.211784,364.737676 L581.786426,364.737676 L582.054562,362.65129 L580.691863,362.919991 L580.482999,364.73824 L580.482999,364.73824 Z M565.670562,364.800335 L564.369394,364.800335 L563.357248,373.291519 L564.658417,373.291519 L565.320009,367.817014 C565.402426,367.197195 565.526051,366.76366 565.691449,366.494959 C565.83596,366.247144 566.062889,366.040538 566.353041,365.87514 C566.682708,365.709742 567.03439,365.606439 567.40583,365.606439 C567.984441,365.606439 568.377332,365.833367 568.583374,366.24658 C568.748772,366.535603 568.790545,366.886721 568.748772,367.32082 L568.046536,373.291519 L569.368591,373.291519 L570.051069,367.44501 L570.070827,366.618584 C570.070827,366.102068 569.968088,365.667969 569.74116,365.358624 C569.389477,364.883316 568.852639,364.635502 568.129517,364.635502 C567.530584,364.635502 567.034955,364.738805 566.642064,364.945411 C566.228851,365.152018 565.856847,365.399832 565.547502,365.75095 L565.670562,364.800335 L565.670562,364.800335 Z M572.281402,367.279612 C572.281402,367.899431 572.467687,368.395061 572.839127,368.746743 C573.066055,368.952785 573.417738,369.139069 573.872159,369.283581 L574.926077,369.675907 C575.297517,369.841305 575.545896,370.006703 575.690408,370.130329 C575.897579,370.337499 575.979431,370.626523 575.959674,370.957319 C575.959674,371.328759 575.855806,371.659555 575.628878,371.948578 C575.339854,372.320018 574.905755,372.485416 574.306822,372.485416 C573.666117,372.465658 573.252904,372.258487 573.046862,371.824953 C572.922108,371.494157 572.902351,371.10183 573.005089,370.647409 L571.703921,370.647409 C571.662148,370.791921 571.64239,371.018849 571.621504,371.288115 C571.621504,371.887047 571.766015,372.361791 572.055039,372.6717 C572.510589,373.167894 573.191938,373.436031 574.100216,373.456917 C575.092604,373.456917 575.877257,373.167894 576.435546,372.61017 C576.951497,372.155749 577.24052,371.494157 577.30318,370.626523 C577.30318,370.109442 577.178426,369.718245 576.972384,369.387449 C576.71325,369.059589 576.380393,368.79752 576.000882,368.622553 L574.927206,368.230227 C574.513993,368.08628 574.244728,367.982977 574.121103,367.920882 C573.894174,367.755484 573.728776,367.610972 573.666681,367.486783 C573.562814,367.321385 573.52217,367.114778 573.541927,366.866964 C573.541927,366.557054 573.666681,366.267466 573.914496,365.99933 C574.224406,365.68942 574.63649,365.524022 575.194778,365.544344 C575.650329,365.544344 576.000882,365.709742 576.187166,366.06086 C576.372322,366.37077 576.414095,366.742774 576.310792,367.197195 L577.530108,367.197195 C577.570752,367.093892 577.591638,366.887286 577.591638,366.577376 C577.591638,366.040538 577.405354,365.606439 577.075687,365.255321 C576.703118,364.821222 576.083299,364.61518 575.215665,364.594293 C574.389804,364.594293 573.707325,364.842108 573.170487,365.337738 C572.590748,365.853689 572.302289,366.494395 572.281402,367.279612 L572.281402,367.279612 Z" id="Shape"></path>
        </g>
    </g>
</svg>