<?xml version="1.0" encoding="UTF-8"?>
<svg width="107px" height="45px" viewBox="0 0 107 45" version="1.1" xmlns="http://www.w3.org/2000/svg" xmlns:xlink="http://www.w3.org/1999/xlink">
    <!-- Generator: Sketch 55.2 (78181) - https://sketchapp.com -->
    <title>Shape</title>
    <desc>Created with Sketch.</desc>
    <g id="Page-1" stroke="none" stroke-width="1" fill="none" fill-rule="evenodd">
        <g id="Tablet" transform="translate(-387.000000, -227.000000)" fill="#000000" fill-rule="nonzero">
            <path d="M440.730373,232.328018 C441.448777,232.361613 442.13497,232.63601 442.678456,233.107025 C443.419078,233.808132 443.613266,234.977208 443.262712,235.912582 C441.900013,238.717574 438.659228,240.591144 436.444701,241.210964 C435.119824,241.522567 433.444957,241.522567 432.236931,241.055162 C431.65211,241.405716 431.158739,242.538664 430.444648,242.067872 C429.411052,241.260639 430.305782,239.997292 429.709107,239.100869 C429.586046,238.916278 429.276137,238.90273 429.120335,238.600723 C428.301813,236.808441 429.315087,235.09406 430.444648,233.730796 C432.327815,231.629733 437.730628,229.288759 440.730373,232.328018 L440.730373,232.328018 Z M434.457667,233.730232 C433.405442,233.924983 432.217173,234.382792 431.574774,235.13301 C430.93181,235.882664 430.523114,236.613689 430.912617,237.392697 C432.276445,236.379987 432.938602,234.977208 434.458232,234.1203 C434.457667,233.963934 434.691369,233.847083 434.457667,233.730232 Z M440.808838,234.1203 C438.120132,233.886033 436.094148,235.912582 434.185014,237.860101 C434.068163,238.171705 433.367056,238.522258 433.912362,238.872811 C436.484216,239.106514 438.938655,238.367021 440.808838,236.652075 C441.354708,236.14572 441.743083,235.483563 441.471559,234.781892 C441.354708,234.509804 441.079797,234.237151 440.808838,234.1203 Z M464.106249,245.730337 C465.353226,248.769596 466.404886,253.561058 464.106249,256.483466 C463.483043,257.184573 462.392432,257.830924 461.691325,257.301424 C459.119471,255.237054 458.029424,252.275696 456.431894,249.62594 C456.198192,249.509089 456.198192,249.821257 456.081341,249.938108 C455.497085,252.626249 456.587696,256.132913 454.757028,258.236234 C454.055921,258.353085 453.399974,257.99237 453.159497,257.301424 C452.263074,254.535383 453.197319,251.651925 453.431021,248.885883 C453.976891,247.483105 454.210593,245.847189 455.41862,244.794964 C457.366703,245.573971 458.301513,247.756322 459.430509,249.353852 C460.249596,250.561314 460.911189,251.925142 461.845998,253.015753 C462.663956,252.6652 462.261469,251.59604 462.236066,250.950818 C461.923334,248.418479 461.222227,246.080891 460.559506,243.665402 C460.521685,243.042196 460.171131,241.989971 460.832159,241.600467 C462.587749,242.38004 463.326677,244.210708 464.106249,245.730337 L464.106249,245.730337 Z M452.34041,244.794964 C452.34041,245.379784 451.873006,246.110245 451.482373,246.197742 C447.742571,246.781998 443.573751,246.431444 440.067652,247.599956 C439.9508,248.02841 440.457155,248.106311 440.729808,248.223162 C443.728988,248.690567 446.885663,248.807418 449.808071,249.54804 C451.353103,249.940366 451.91252,251.769341 452.029372,253.288406 C452.101063,254.486271 451.640432,255.937596 450.470792,256.756119 C447.588463,258.587352 443.18594,258.508886 440.262968,256.834584 C439.145826,256.207991 438.081182,255.198668 438.003281,253.951691 C438.010055,252.961561 438.4323,252.181989 439.133407,251.808856 C441.938964,250.67873 445.406112,251.303065 447.822165,252.743665 C447.976838,253.523237 447.133477,253.4809 446.729861,253.756939 C444.041155,255.315519 442.015735,252.004736 439.522346,253.211069 C439.171793,253.444772 438.918333,254.096767 439.327594,254.302245 C442.405239,255.666073 445.834002,254.691749 448.872697,253.83484 C449.22325,253.717989 449.652269,253.367436 449.690655,253.016882 C449.573804,251.769905 448.17159,251.497817 447.275166,251.147264 C444.625976,250.485107 441.704132,250.485107 438.859625,250.212454 C438.31432,250.095603 437.619422,249.715696 437.457411,249.277645 C437.145808,248.342836 437.145808,247.056908 437.846915,246.277901 C441.469865,243.08284 446.962999,243.356057 451.560273,244.212966 C451.872441,244.327559 452.222994,244.44441 452.34041,244.794964 L452.34041,244.794964 Z M435.31514,246.275643 C435.665693,250.015444 435.860445,253.483722 435.782545,257.418276 C435.704644,257.924066 435.120388,258.041482 434.730884,258.236234 C434.107678,258.353085 433.302139,258.220428 433.055453,257.88568 C432.159594,256.443387 432.471197,254.496432 432.393297,252.7431 C432.510148,249.977623 432.471197,246.977314 433.25077,244.40546 C433.399797,244.031762 433.835025,243.704353 434.185579,243.937491 C435.120388,244.40546 435.27619,245.340834 435.31514,246.275643 L435.31514,246.275643 Z M478.600873,245.730337 C478.788287,246.045327 478.984168,246.531925 478.600873,246.743047 C476.847541,247.522055 474.471568,247.171502 472.445019,247.405204 C471.899713,247.872609 471.470695,248.651616 471.664882,249.353288 C471.860763,249.470139 472.035193,249.647956 472.250267,249.625376 C473.496115,249.703841 475.366862,249.04112 476.185949,250.209632 C476.385782,250.557363 476.158853,251.855709 475.601693,251.885063 C474.081499,252.080944 471.581901,251.694262 470.847488,252.080944 C469.912679,252.70415 469.990015,253.911612 469.639462,254.886501 C470.302183,255.314955 470.995951,254.87634 471.781733,254.769085 C473.224591,254.535383 474.822121,254.106928 476.262721,254.418531 C476.535374,254.924886 476.925442,255.470756 476.652225,256.093963 C474.196093,258.042046 471.028128,260.038677 467.652992,258.626302 C466.386258,258.058417 465.82176,256.132913 466.250778,254.497561 C466.522867,253.328485 467.730329,252.198924 466.990836,250.951947 C466.873985,250.406077 467.186152,249.939237 467.653557,249.822386 C468.93892,249.822386 468.665702,248.224856 469.328423,247.484234 C468.588366,246.666276 466.718748,246.705226 466.913499,245.068745 C467.809923,244.601341 468.901098,244.757142 469.912679,244.601341 C472.211316,244.133372 474.782606,243.860719 477.121888,244.133372 C477.587599,244.227078 478.211369,245.146082 478.600873,245.730337 Z M422.964481,236.847391 C426.559771,239.78617 431.224221,244.795528 430.639965,250.561314 C429.938293,255.120203 425.107316,258.548401 421.016397,259.639577 C417.042329,260.808088 412.05555,260.691237 408.003017,259.756428 C407.730364,260.49705 407.457711,261.392344 406.600803,261.704512 C406.055497,261.899264 405.353826,261.782412 404.925372,261.431859 C403.71791,260.301733 404.691669,258.119947 402.938337,257.419405 C399.509574,255.977676 395.808159,253.133169 394.055391,249.627069 C393.821689,248.925963 394.094342,248.224856 394.522796,247.67955 C397.211502,245.536714 400.60075,244.679806 403.990562,244.017085 C404.185314,244.094986 404.107413,243.822333 404.263215,243.744432 C404.457967,241.406845 404.535868,239.029742 405.275925,236.925857 C405.44471,236.630624 405.860181,236.536353 406.133398,236.731105 C408.276234,238.367021 407.262959,241.445795 408.198333,243.665967 C412.289252,243.860719 416.380172,244.055471 419.613619,246.354673 C420.704794,247.250531 420.970673,248.961526 420.626329,249.939237 C420.282549,250.915255 419.146214,251.614668 418.093989,251.69144 C417.392318,251.69144 416.068004,251.759744 416.145905,251.2246 C416.223806,250.688891 418.529217,249.812225 417.821336,249.0812 C416.803546,248.030668 411.711206,247.405768 408.555096,247.016265 C408.165592,246.938364 407.808265,247.055215 407.808265,247.483669 C407.730364,250.444463 407.496662,253.71686 408.003017,256.561932 C408.041967,256.757248 408.275669,256.99095 408.470986,257.028772 C414.04202,257.925195 419.925222,257.418276 424.288794,254.223779 C426.314778,252.588428 426.977499,250.288097 426.626381,247.756322 C424.87305,240.704609 417.509733,236.457323 411.47073,233.730232 C405.588093,231.158942 399.08112,229.834064 392.107308,230.185182 C390.996939,230.26647 389.237398,230.649764 389.224415,231.042655 C389.211431,231.435546 391.217658,231.311921 390.977182,232.055365 C390.73727,232.798245 388.698302,232.357372 388.094289,232.172216 C387.490276,231.987061 387.548983,231.119991 387.704785,230.574686 C389.224415,227.886545 393.464926,227.669213 395.380269,227.574942 C405.977032,227.301724 416.22437,231.337323 422.964481,236.847391 L422.964481,236.847391 Z M403.873711,247.288917 C401.185006,247.327868 398.341063,247.60052 395.847674,248.53533 C395.341319,248.730082 394.717548,249.275387 395.107052,249.938108 C396.119762,251.301372 397.568265,252.420772 398.925319,253.210505 C400.282373,253.999109 402.081429,255.002787 403.71791,255.237054 C404.107413,252.70415 404.107413,250.210761 404.068463,247.60052 C403.912097,247.52262 404.067899,247.366818 403.873711,247.288917 L403.873711,247.288917 Z M484.405045,243.743303 C484.288194,247.132551 481.131519,249.237001 481.131519,252.626249 C481.24837,252.7431 481.3274,252.898902 481.482073,252.82213 C484.015541,250.055524 486.508366,246.120406 490.209782,244.951894 C491.185235,244.873993 492.066417,245.721305 492.431083,246.354673 C493.71701,248.925963 493.406536,252.549477 491.613689,254.887065 C489.763828,257.181751 486.547881,259.48434 482.887109,259.094271 C481.368044,262.834637 480.314126,266.769755 479.72987,270.860675 C479.418267,271.678633 478.678774,270.938576 478.211369,270.782774 C475.055824,268.289385 477.646871,261.688706 477.860816,260.846474 C478.074761,260.006501 478.91925,258.025111 479.536811,256.366051 C478.056132,253.717424 478.990942,250.521799 480.198404,248.067361 C481.133213,246.43088 482.420269,244.794399 483.939334,243.547987 C484.132393,243.548551 484.288194,243.587502 484.405045,243.743303 L484.405045,243.743303 Z M490.67888,247.951074 C490.211475,247.873173 490.016159,248.496944 489.627219,248.613795 C487.835502,250.639779 486.042655,252.665764 485.146232,255.081252 C486.354822,255.237054 487.366968,254.458046 488.419757,254.029592 C490.211475,252.899466 491.341601,251.030412 491.22475,248.887012 C491.146284,248.53533 490.834681,248.262677 490.67888,247.951074 Z" id="Shape"></path>
        </g>
    </g>
</svg>