<?xml version="1.0" encoding="UTF-8"?>
<svg width="188px" height="26px" viewBox="0 0 188 26" version="1.1" xmlns="http://www.w3.org/2000/svg" xmlns:xlink="http://www.w3.org/1999/xlink">
    <!-- Generator: Sketch 55.2 (78181) - https://sketchapp.com -->
    <title>Group</title>
    <desc>Created with Sketch.</desc>
    <g id="Page-1" stroke="none" stroke-width="1" fill="none" fill-rule="evenodd">
        <g id="Tablet" transform="translate(-402.000000, -333.000000)" fill="#113565" fill-rule="nonzero">
            <g id="Group" transform="translate(402.400794, 333.081288)">
                <path d="M72.5741654,12.4014642 L72.5741654,19.8855832 L65.3446351,12.4014642 L59.9835943,12.4014642 L59.9835943,24.7995413 L63.4795325,24.7995413 L63.4795325,17.4271929 L70.7293848,24.7995413 L76.0853451,24.7995413 L76.0853451,12.4014642 L72.5741654,12.4014642 Z M26.4219096,14.8688864 L29.2794002,14.8688864 C30.8599956,14.8688864 31.7265006,15.6512811 31.7265006,16.9264829 C31.7265006,18.6290099 30.9277354,19.2053627 28.5653098,19.2296362 L32.1126174,24.7995413 L37.8998545,24.7995413 L34.2345667,19.5457552 C34.799065,19.4723705 37.2264079,19.1415744 37.2264079,15.9239338 C37.2264079,12.4189636 33.7090187,12.4014642 31.4402999,12.4014642 L21.1986064,12.4014642 L21.1986064,24.7995413 L26.4219096,24.7995413 L26.4219096,14.8688864 Z M50.9826681,12.4014642 L50.9826681,19.3526968 C50.9826681,20.5245954 50.7495303,21.3425535 50.2618037,21.860763 C49.7222212,22.3682361 48.9926138,22.62286 48.2544476,22.5613054 C47.5186641,22.6241089 46.7911617,22.3691441 46.255559,21.860763 C45.7621874,21.3425535 45.5217111,20.5245954 45.5217111,19.3526968 L45.5217111,12.4014642 L40.2267166,12.4014642 L40.2267166,19.6834928 C40.2267166,21.6411731 40.630333,22.4675987 41.477645,23.3081367 C42.8008291,24.6149504 45.3077663,25.1636428 48.2516251,25.1636428 C51.195484,25.1636428 53.7272591,24.6149504 55.0476207,23.3081367 C55.8988842,22.4675987 56.2810496,21.6411731 56.2810496,19.6834928 L56.2810496,12.4014642 L50.9826681,12.4014642 Z M88.5500331,12.4014642 L80.0357045,12.4014642 L80.0357045,24.7995413 L88.5528556,24.7995413 C94.7832238,24.7995413 97.6785358,23.4752282 97.6785358,18.5703021 C97.6785358,13.665376 94.7832238,12.4014642 88.5500331,12.4014642 L88.5500331,12.4014642 Z M87.9855347,22.2626858 L85.2928776,22.2626858 L85.2928776,14.9343682 L87.9855347,14.9343682 C90.800688,14.9343682 92.1103241,16.1457817 92.1103241,18.6036075 C92.1103241,20.9530496 90.6844013,22.2638148 87.9855347,22.2638148 L87.9855347,22.2626858 Z M125.838536,12.0322822 C119.00359,12.0322822 116.016265,14.4997045 116.016265,18.5319162 C116.016265,23.0038721 119.000767,25.1687233 125.838536,25.1687233 C132.590501,25.1687233 135.608873,22.9976626 135.608873,18.5172393 C135.608873,14.5290584 132.590501,12.0322822 125.838536,12.0322822 L125.838536,12.0322822 Z M125.815391,22.6572701 C123.132331,22.6572701 121.78318,21.2460243 121.78318,18.5878015 C121.78318,15.8974024 123.094509,14.5290584 125.815391,14.5290584 C128.559982,14.5290584 129.849297,15.8974024 129.849297,18.5878015 C129.849297,21.4006968 128.674011,22.6572701 125.815391,22.6572701 L125.815391,22.6572701 Z M106.217702,15.0562999 L113.45062,15.0562999 L115.107422,12.4014642 L100.852146,12.4014642 L100.852146,24.7995413 L106.217702,24.7995413 L106.217702,20.7673297 L112.128564,20.7673297 L113.815286,18.0949945 L106.217702,18.0949945 L106.217702,15.0562999 Z M12.4895259,18.8339228 L12.4895259,22.370505 C12.4895259,22.370505 10.9727189,22.5398545 10.235484,22.5398545 C6.08585667,22.5398545 5.63933848,20.2925865 5.63933848,18.6832018 C5.63933848,16.1429592 7.29501213,14.7881632 10.6283749,14.7881632 C12.2811702,14.7553739 13.9331712,14.8856508 15.5603969,15.1771025 L16.1948931,15.3007277 L17.8652437,12.6046836 C15.2074105,12.2611644 12.5292226,12.0995301 9.84936714,12.1209085 C3.09909592,12.1209085 2.84217094e-14,14.2394708 2.84217094e-14,18.7560221 C2.84217094e-14,23.2889438 3.04038809,25.100419 9.81888423,25.100419 C12.4775036,25.1401463 15.1329031,24.8994688 17.741054,24.3823771 L17.741054,18.8339228 L12.4895259,18.8339228 Z M148.419599,17.0873649 C145.984353,16.7035061 144.425773,16.7153605 144.425773,15.5632194 C144.425773,14.4110783 146.885292,14.3693054 148.437098,14.3693054 C149.843832,14.4107521 151.24538,14.5590781 152.629627,14.8130011 L154.158853,12.3941257 C151.841995,12.116332 149.510591,11.9774053 147.177138,11.9780879 C141.575056,11.9780879 137.985411,12.9478986 137.985411,15.6473297 C137.985411,18.5099008 141.033702,19.0371422 144.048688,19.5243043 C146.415065,19.9019537 147.971387,19.966871 147.971387,21.0834487 C147.971387,22.3518765 145.890082,22.522355 143.802567,22.522355 C142.280092,22.4753449 140.764828,22.2928558 139.274725,21.9770496 L137.494298,24.7995413 C140.056405,25.1310493 142.639146,25.276694 145.22228,25.2353341 C151.470148,25.2353341 154.414007,24.0984344 154.414007,21.0507078 C154.414007,18.2225711 151.330717,17.5372701 148.417905,17.0834135 L148.419599,17.0873649 Z M168.915405,24.8034928 L162.216503,24.8034928 L171.560644,15.5107211 C172.201853,15.9603098 172.796584,16.4727804 173.335991,17.0405116 C173.923212,17.5825773 174.458778,18.1780498 174.935779,18.8192459 L168.915405,24.8034928 Z" id="Shape"></path>
                <path d="M165.828163,17.5875105 C162.279727,13.2945006 161.293548,11.419237 160.390915,9.18551709 C159.813433,7.76467475 159.101601,4.9845204 160.57099,3.52303418 C161.873852,2.23089746 164.433288,2.67628666 167.012481,3.82560529 C169.968759,5.14088644 173.378329,7.54056891 176.582986,10.5216847 L187.174104,7.10542736e-15 L187.174104,6.64358104 L177.487312,16.2784388 C177.487312,16.2784388 176.436781,15.1906505 175.895991,14.663409 C170.209235,9.10140684 164.930046,6.40310474 163.614201,7.68959647 C161.852966,9.40905843 167.28344,15.6778126 167.475369,15.9555458 L165.828163,17.5875105 Z M187.17241,24.8034928 L183.40269,24.8034928 C182.931786,23.646945 182.340913,22.5429602 181.639762,21.509645 C180.918245,20.36001 180.079428,19.2883146 179.136776,18.3117619 L181.680406,15.7884542 C182.815438,17.1333536 183.858727,18.5530722 184.803211,20.0379978 C185.773779,21.5302419 186.569315,23.1292687 187.174104,24.8034928 L187.17241,24.8034928 Z" id="Shape"></path>
            </g>
        </g>
    </g>
</svg>