<?xml version="1.0" encoding="UTF-8"?>
<svg width="618px" height="385px" viewBox="0 0 618 385" version="1.1" xmlns="http://www.w3.org/2000/svg" xmlns:xlink="http://www.w3.org/1999/xlink">
    <!-- Generator: Sketch 55.2 (78181) - https://sketchapp.com -->
    <title>Group</title>
    <desc>Created with Sketch.</desc>
    <g id="Page-1" stroke="none" stroke-width="1" fill="none" fill-rule="evenodd">
        <g id="Tablet" transform="translate(-225.000000, -126.000000)" fill="#231F20" fill-rule="nonzero">
            <g id="Group" transform="translate(225.938131, 126.337215)">
                <path d="M599.766252,345.437725 C599.766252,352.085725 597.631585,357.757724 593.364918,362.452391 C589.099585,367.144391 583.852919,369.491059 577.631586,369.491059 C571.407586,369.491059 566.167586,367.144391 561.899586,362.452391 C557.631586,357.757724 555.500919,352.085725 555.500919,345.437725 C555.500919,338.788392 557.631586,333.133725 561.899586,328.477725 C566.167586,323.820392 571.407586,321.491059 577.631586,321.491059 C583.852919,321.491059 589.099585,323.820392 593.364918,328.477725 C597.631585,333.133725 599.766252,338.788392 599.766252,345.437725 M605.418252,318.023059 C597.880918,310.665726 588.602252,306.984392 577.578252,306.984392 C566.556919,306.984392 557.276919,310.665726 549.738253,318.023059 C542.199586,325.385725 538.43292,334.540392 538.43292,345.491058 C538.43292,356.441724 542.199586,365.597724 549.738253,372.959057 C557.276919,380.317724 566.556919,383.999057 577.578252,383.999057 C588.602252,383.999057 597.880918,380.317724 605.418252,372.959057 C612.956918,365.597724 616.727585,356.441724 616.727585,345.491058 C616.727585,334.540392 612.956918,325.385725 605.418252,318.023059" id="path62" transform="translate(577.580252, 345.491725) scale(-1, 1) rotate(-180.000000) translate(-577.580252, -345.491725) "></path>
                <polygon id="path58" transform="translate(472.297855, 345.972125) scale(-1, 1) rotate(-180.000000) translate(-472.297855, -345.972125) " points="463.977855 383.252124 480.617855 383.252124 480.617855 308.692126 463.977855 308.692126"></polygon>
                <path d="M382.968124,329.169725 C387.05479,333.011058 389.10279,338.591058 389.10279,345.917725 C389.10279,353.240391 387.05479,358.876391 382.968124,362.823058 C378.878791,366.769724 372.602791,368.744391 364.141458,368.744391 L354.861458,368.744391 L354.861458,323.411059 L365.421458,323.411059 C373.029457,323.411059 378.878791,325.329725 382.968124,329.169725 M395.180123,373.489724 C402.29079,366.983057 405.84679,357.933724 405.84679,346.344391 C405.84679,334.752392 402.381457,325.579059 395.44679,318.823059 C388.513457,312.067059 377.936124,308.691059 363.714791,308.691059 L338.220125,308.691059 L338.220125,383.251057 L364.566791,383.251057 C377.865457,383.251057 388.068124,379.996391 395.180123,373.489724" id="path56" transform="translate(372.033457, 345.971058) scale(-1, 1) rotate(-180.000000) translate(-372.033457, -345.971058) "></path>
                <path d="M567.567052,175.003463 C570.337719,171.554129 574.073719,169.830129 578.764386,169.830129 C583.459052,169.830129 587.175052,171.554129 589.915052,175.003463 C592.649719,178.452796 594.019052,183.163462 594.019052,189.138129 L594.019052,230.310128 L610.657718,230.310128 L610.657718,188.603462 C610.657718,177.794129 607.671051,169.491462 601.701718,163.698129 C595.725718,157.900796 588.081719,155.003463 578.764386,155.003463 C569.448386,155.003463 561.788386,157.919463 555.777719,163.751463 C549.768386,169.580796 546.764386,177.864796 546.764386,188.603462 L546.764386,230.310128 L563.407053,230.310128 L563.407053,189.138129 C563.407053,183.163462 564.793719,178.452796 567.567052,175.003463" id="path42" transform="translate(578.711052, 192.656795) scale(-1, 1) rotate(-180.000000) translate(-578.711052, -192.656795) "></path>
                <polygon id="path38" transform="translate(472.102522, 192.282529) scale(-1, 1) rotate(-180.000000) translate(-472.102522, -192.282529) " points="480.422521 215.162528 480.422521 155.002529 463.782522 155.002529 463.782522 215.162528 442.662522 215.162528 442.662522 229.562528 501.542521 229.562528 501.542521 215.162528"></polygon>
                <path d="M359.836658,213.829728 C358.236658,212.513728 357.435324,210.771061 357.435324,208.603061 C357.435324,206.432395 358.413991,204.709728 360.368658,203.429728 C362.323324,202.149728 366.839324,200.637728 373.917991,198.896395 C380.98999,197.152395 386.483324,194.539062 390.396657,191.056395 C394.307323,187.572395 396.26199,182.485729 396.26199,175.801729 C396.26199,169.117729 393.75399,163.696396 388.743324,159.536396 C383.72999,155.376396 377.133991,153.296396 368.956657,153.296396 C357.149991,153.296396 346.520658,157.669729 337.063325,166.416396 L346.980658,178.576396 C355.019324,171.536396 362.449991,168.016396 369.276657,168.016396 C372.333991,168.016396 374.732657,168.673729 376.475324,169.989729 C378.216657,171.303062 379.087324,173.083062 379.087324,175.323062 C379.087324,177.563062 378.163324,179.340396 376.313991,180.656395 C374.467324,181.969729 370.805991,183.303062 365.329991,184.656395 C356.651324,186.717729 350.307325,189.403062 346.289991,192.709729 C342.269991,196.016395 340.261991,201.205728 340.261991,208.283061 C340.261991,215.357728 342.805991,220.816394 347.889991,224.656394 C352.973991,228.496394 359.317991,230.416394 366.928657,230.416394 C371.907324,230.416394 376.883324,229.563061 381.863324,227.856394 C386.839324,226.149728 391.17799,223.731061 394.875323,220.603061 L386.44999,208.443061 C379.976657,213.349728 373.293991,215.803061 366.396658,215.803061 C363.623324,215.803061 361.435324,215.144395 359.836658,213.829728" id="path34" transform="translate(366.662658, 191.856395) scale(-1, 1) rotate(-180.000000) translate(-366.662658, -191.856395) "></path>
                <polygon id="path22" transform="translate(249.970394, 192.282795) scale(-1, 1) rotate(-180.000000) translate(-249.970394, -192.282795) " points="276.26306 229.562794 276.26306 214.736128 239.143061 214.736128 239.143061 199.374795 272.529727 199.374795 272.529727 185.189462 239.143061 185.189462 239.143061 169.722796 277.437726 169.722796 277.437726 155.002796 222.503061 155.002796 222.503061 229.562794"></polygon>
                <polygon id="path18" transform="translate(145.597463, 192.282662) scale(-1, 1) rotate(-180.000000) translate(-145.597463, -192.282662) " points="121.38413 155.002663 121.38413 229.562661 138.022797 229.562661 138.022797 169.829329 169.810796 169.829329 169.810796 155.002663"></polygon>
                <polygon id="path14" transform="translate(29.653333, 192.282529) scale(-1, 1) rotate(-180.000000) translate(-29.653333, -192.282529) " points="37.9726657 215.162528 37.9726657 155.002529 21.3339995 155.002529 21.3339995 215.162528 0.213999995 215.162528 0.213999995 229.562528 59.0926652 229.562528 59.0926652 215.162528"></polygon>
                <polygon id="path52" transform="translate(248.958660, 37.279999) scale(-1, 1) rotate(-180.000000) translate(-248.958660, -37.279999) " points="257.27866 60.1599985 257.27866 -1.42108547e-14 240.638661 -1.42108547e-14 240.638661 60.1599985 219.518661 60.1599985 219.518661 74.5599981 278.39866 74.5599981 278.39866 60.1599985"></polygon>
                <polygon id="path48" transform="translate(130.771863, 37.280132) scale(-1, 1) rotate(-180.000000) translate(-130.771863, -37.280132) " points="122.45253 74.5601315 139.091197 74.5601315 139.091197 0.00013333333 122.45253 0.00013333333"></polygon>
                <polygon id="path46" transform="translate(24.213333, 37.280132) scale(-1, 1) rotate(-180.000000) translate(-24.213333, -37.280132) " points="1.42108547e-14 0.00013333333 1.42108547e-14 74.5601315 16.6386663 74.5601315 16.6386663 14.8267996 48.4266655 14.8267996 48.4266655 0.00013333333"></polygon>
            </g>
        </g>
    </g>
</svg>