<?xml version="1.0" encoding="UTF-8"?>
<svg width="418px" height="85px" viewBox="0 0 418 85" version="1.1" xmlns="http://www.w3.org/2000/svg" xmlns:xlink="http://www.w3.org/1999/xlink">
    <!-- Generator: Sketch 55.2 (78181) - https://sketchapp.com -->
    <title>Group</title>
    <desc>Created with Sketch.</desc>
    <g id="Page-1" stroke="none" stroke-width="1" fill="none" fill-rule="evenodd">
        <g id="Group" transform="translate(0.425698, 0.309323)" fill-rule="nonzero">
            <path d="M75.266258,4.38220066 C68.4115546,4.38220066 61.9853054,5.72006174 56.4498346,8.0559559 C50.9143638,5.72006174 44.4881147,4.38220066 37.6334112,4.38220066 C16.8491466,4.38220066 1.42108547e-14,16.6724587 1.42108547e-14,31.8343197 C1.42108547e-14,32.5145402 0.0349988975,33.1868578 0.102174201,33.8552238 C0.113464168,33.969817 0.127012128,34.0832811 0.13999559,34.1973098 C1.78325028,48.2521896 17.9403219,59.2864388 37.6334112,59.2864388 C42.3243925,59.2864388 46.8138479,58.6581521 50.9555722,57.5133495 C52.8658346,56.9855436 54.7027122,56.3493539 56.4498346,55.6126836 C66.8162822,51.2378214 74.055409,43.359118 75.1262624,34.1967453 C75.1392459,34.0827166 75.1533583,33.9692525 75.1646483,33.8546593 L75.083925,33.8546593 L56.4492701,33.8546593 L37.8157442,33.8546593 C39.0260287,24.8379272 46.2132216,17.1026064 56.4503991,12.7819361 C58.198086,12.0452657 60.0349636,11.4079471 61.9446615,10.8807056 C66.0863859,9.73759647 70.5758412,9.10874531 75.2668225,9.10874531 C94.7995943,9.10874531 110.854492,19.963484 112.718465,33.8546593 C112.733142,33.9681235 112.74669,34.0827166 112.760238,34.1967453 C112.772657,34.0827166 112.787334,33.9692525 112.798624,33.8546593 C112.86467,33.1857288 112.900234,32.5139757 112.900234,31.8337552 C112.900234,16.6735877 96.0510871,4.38220066 75.266258,4.38220066 Z" id="Path" fill="#74CAF1"></path>
            <path d="M112.759674,34.1984388 C112.746126,34.0838456 112.732578,33.9692525 112.717901,33.8557883 C110.853927,19.9651775 94.7990298,9.10987431 75.266258,9.10987431 C70.5752767,9.10987431 66.0858214,9.73759647 61.944097,10.8818346 C60.0338346,11.4102051 58.196957,12.0463947 56.4498346,12.783065 C46.2126571,17.1037354 39.0254642,24.8390562 37.8151797,33.8557883 L56.4498346,33.8557883 L75.0844895,33.8557883 L75.1652128,33.8557883 C75.1533583,33.9703815 75.1398104,34.0838456 75.1268269,34.1984388 C74.0559735,43.3596825 66.8168467,51.2395149 56.4503991,55.6143771 C54.7027122,56.3510474 52.8658346,56.988366 50.9561367,57.515043 C46.8144123,58.6587166 42.324957,59.2881323 37.6339757,59.2881323 C17.9408864,59.2881323 1.78381477,48.2538831 0.140560088,34.1995678 C0.0496758545,34.97914 0.000564498346,35.7654862 0.000564498346,36.5636869 C0.000564498346,51.724419 16.8497111,64.015806 37.6339757,64.015806 C44.4886792,64.015806 50.9149283,62.6785094 56.4503991,60.3420507 C61.9858699,62.6785094 68.4121191,64.015806 75.2668225,64.015806 C96.0510871,64.015806 112.900234,51.725548 112.900234,36.5636869 C112.900234,35.7649217 112.849993,34.978011 112.759674,34.1984388 Z" id="Path" fill="#3B9AC9"></path>
            <path d="M173.068419,25.0637266 C173.068419,27.830333 172.773186,30.7516119 172.179899,33.8275634 C171.586611,36.9052084 170.739863,39.8688247 169.639656,42.7184123 C168.539449,45.5696935 167.183524,48.124613 165.575268,50.3814774 C163.965883,52.6394708 162.173601,54.3329658 160.198421,55.4619625 L160.198421,55.7148578 L171.036789,55.4619625 L169.597319,64.013548 L146.142412,64.013548 C140.384529,64.013548 136.009103,62.2218302 133.017826,58.6372657 C130.02542,55.0521367 128.530064,49.9016538 128.530064,43.1841235 C128.530064,38.3288732 129.135771,33.4877354 130.350571,28.661839 C131.563678,23.8353782 133.314187,19.4893054 135.600406,15.6219272 C137.886624,11.7556781 140.693874,8.62327674 144.025544,6.22302977 C147.354955,3.8244763 151.108869,2.62435281 155.286721,2.62435281 C158.221548,2.62435281 160.803563,3.1753032 163.035025,4.27551047 C165.264229,5.37628225 167.127638,6.91566924 168.622994,8.89084895 C170.117786,10.8671577 171.233799,13.2380507 171.968212,16.0035281 C172.700366,18.76957 173.068419,21.7902007 173.068419,25.0637266 Z M162.907449,26.5026329 C162.907449,24.6397883 162.793985,22.8198456 162.56875,21.0411114 C162.34295,19.2635061 161.933689,17.6834752 161.340966,16.2998897 C160.748243,14.9174333 159.915043,13.8014201 158.843061,12.9546725 C157.769949,12.107925 156.386928,11.6845513 154.693433,11.6845513 C152.153191,11.6845513 149.88052,12.7305667 147.877116,14.8180816 C145.872582,16.9067255 144.179087,19.5169658 142.796631,22.6504961 C141.413045,25.783462 140.354611,29.170452 139.621327,32.8114664 C138.886915,36.4513517 138.52112,39.8541477 138.52112,43.013645 C138.52112,46.7963484 139.253839,49.7599647 140.722099,51.9044939 C142.189795,54.0518456 144.363114,55.122699 147.242055,55.122699 C149.668834,55.122699 151.857394,54.1918412 153.804348,52.3278677 C155.751868,50.4655877 157.403025,48.124613 158.757821,45.3009923 C160.112617,42.4785006 161.142262,39.3873076 161.84845,36.0279779 C162.554637,32.6714708 162.907449,29.4956031 162.907449,26.5026329 Z" id="Shape" fill="#000000"></path>
            <path d="M208.63125,53.3450937 C208.517786,53.9095921 208.389645,54.6869063 208.249649,55.6736494 C208.108525,56.6615215 207.953288,57.684957 207.783938,58.7445204 C207.614589,59.8063418 207.458787,60.8246968 207.318227,61.7984564 C207.177103,62.7733451 207.077751,63.5117089 207.022994,64.013548 L198.301495,64.013548 C198.41383,63.1668004 198.540842,62.0807056 198.682531,60.7541345 C198.823092,59.4281279 199.006553,58.1433297 199.234046,56.9014333 L199.063568,56.9014333 C197.942474,59.2723264 196.400265,61.2904079 194.440326,62.9562426 C192.479259,64.6198192 190.153526,65.4535832 187.464256,65.4535832 C185.754955,65.4535832 184.301936,65.1600441 183.106329,64.5735303 C181.910157,63.9881455 180.954461,63.2063153 180.243193,62.2286042 C179.531925,61.2514576 179.003555,60.1326218 178.662033,58.875484 C178.321076,57.6166527 178.150033,56.3386284 178.150033,55.0397178 C178.150033,54.1365204 178.207612,53.0639735 178.321076,51.8220772 C178.43454,50.5813098 178.606148,49.3653804 178.833076,48.1810628 L183.616635,21.0851422 L192.799894,21.0851422 L188.058108,48.0958236 C187.775294,49.5081985 187.634734,50.86243 187.634734,52.1607762 C187.634734,53.6301654 187.929967,54.8698037 188.519868,55.8870298 C189.109768,56.9031268 190.220137,57.4100463 191.849843,57.4100463 C192.917874,57.4100463 193.943003,57.1148137 194.926359,56.5220904 C195.909151,55.9282381 196.795413,55.1243925 197.58176,54.10886 C198.368106,53.0933275 199.042681,51.8937685 199.604922,50.510183 C200.167162,49.1277266 200.588842,47.618258 200.869398,45.9800838 L205.169182,21.0862712 L214.390262,21.0862712 L208.63125,53.3450937 Z" id="Path" fill="#000000"></path>
            <path d="M227.683069,64.0141125 L218.537632,64.0141125 L226.075378,20.998774 L235.219687,20.998774 L227.683069,64.0141125 Z M237.929279,7.62072767 C237.929279,9.42768688 237.363652,10.9512679 236.235784,12.1931643 C235.105658,13.4356251 233.695541,14.0560088 232.002046,14.0560088 C230.420886,14.0560088 229.207215,13.5626373 228.360467,12.5742007 C227.51372,11.5868931 227.090346,10.4449129 227.090346,9.14487321 C227.090346,7.45137817 227.653716,5.94190959 228.783841,4.61533848 C229.912838,3.28933186 231.351744,2.62548181 233.102254,2.62548181 C234.62527,2.62548181 235.81241,3.09119294 236.659158,4.02317971 C237.505905,4.95347299 237.929279,6.15359647 237.929279,7.62072767 Z" id="Shape" fill="#000000"></path>
            <path d="M264.346108,29.8896229 C263.83806,29.2692393 263.202999,28.7758677 262.440926,28.4078148 C261.678853,28.0420198 260.67574,27.8574289 259.435537,27.8574289 C257.797927,27.8574289 256.329667,28.5212789 255.031885,29.8472856 C253.732975,31.1744212 252.618655,32.8521103 251.686668,34.8854333 C250.756375,36.9181918 250.049623,39.1332834 249.569799,41.5312723 C249.089411,43.9315193 248.851193,46.1759647 248.851193,48.2640441 C248.851193,50.9736362 249.302227,53.1046174 250.20486,54.6558589 C251.108057,56.2093583 252.745103,56.9844146 255.11656,56.9844146 C256.187413,56.9844146 257.119965,56.8032106 257.909698,56.4340287 C258.699996,56.0682337 259.546743,55.5455083 260.44994,54.8675458 L263.244772,62.1495744 C262.002311,63.1662359 260.534615,63.9700816 258.84112,64.5622404 C257.147625,65.1555281 255.395987,65.4507607 253.590721,65.4507607 C251.162249,65.4507607 249.088282,65.027387 247.368256,64.1806395 C245.644842,63.333892 244.220613,62.1783638 243.091616,60.7106681 C241.961491,59.2424079 241.129985,57.506011 240.594276,55.5014774 C240.056309,53.4986373 239.789301,51.3394311 239.789301,49.0238589 C239.789301,45.5245336 240.240335,42.0105314 241.144097,38.4818523 C242.046165,34.9543021 243.345076,31.7914179 245.038571,28.9977155 C246.732066,26.2040132 248.819017,23.9319074 251.305067,22.1819625 C253.787166,20.4325821 256.609658,19.5570452 259.772542,19.5570452 C262.312785,19.5570452 264.329738,19.9104212 265.826787,20.6154796 C267.321014,21.321667 268.465252,22.0972878 269.25555,22.9440353 L264.346108,29.8896229 Z" id="Path" fill="#000000"></path>
            <polygon id="Path" fill="#000000" points="289.32516 41.3207144 299.824829 64.0141125 289.917319 64.0141125 280.857685 43.2687982 280.687771 43.2687982 277.216106 64.0141125 268.242276 64.0141125 279.332975 1.42108547e-14 288.308498 1.42108547e-14 281.449843 39.1197354 281.619757 39.1197354 296.014465 20.998774 306.683484 20.998774"></polygon>
            <path d="M346.817623,18.6284454 C346.817623,22.0154355 346.352476,25.0078412 345.42049,27.6034046 C344.489067,30.201226 343.176609,32.3880926 341.483114,34.1656979 C339.789619,35.9433032 337.75686,37.2980992 335.385402,38.2295215 C333.015638,39.1609438 330.389592,39.6266549 327.511779,39.6266549 L320.229751,39.6266549 L315.911338,64.013548 L306.428331,64.013548 L316.842761,4.0632591 L332.084216,4.0632591 C334.05996,4.0632591 335.937482,4.34663727 337.715087,4.91000662 C339.493257,5.47506946 341.060304,6.3500419 342.4151,7.53492393 C343.769896,8.71980595 344.841879,10.230968 345.632176,12.0650232 C346.423039,13.9007718 346.817623,16.0882029 346.817623,18.6284454 Z M337.5034,19.9832415 C337.5034,17.6123484 336.925354,15.7370849 335.768132,14.3523705 C334.610346,12.969914 332.846289,12.277839 330.47596,12.277839 L324.887991,12.277839 L321.585111,31.753032 L327.597019,31.753032 C330.64531,31.753032 333.057976,30.7081455 334.836146,28.6195017 C336.61488,26.5319868 337.5034,23.6530452 337.5034,19.9832415 Z" id="Shape" fill="#000000"></path>
            <path d="M375.861627,31.583118 C375.861627,32.6562293 375.789936,33.7304697 375.64994,34.801323 C375.508816,35.8738699 375.324789,37.0593164 375.099555,38.3570981 L372.220049,55.2920485 C371.93667,56.8737729 371.683775,58.525495 371.457976,60.2455215 C371.231047,61.968935 371.118148,63.2226858 371.118148,64.0141125 L363.413874,64.0141125 C363.413874,63.6754135 363.441535,63.2243793 363.49742,62.6598809 C363.55387,62.0965116 363.625561,61.5026593 363.709107,60.8817111 C363.793217,60.260763 363.879021,59.6544917 363.963131,59.061204 C364.047806,58.4673517 364.1449,57.9468842 364.259493,57.4947211 L364.089579,57.4947211 C363.072917,59.8661786 361.689332,61.7007982 359.939951,62.9985799 C358.188878,64.2963616 355.987334,64.9466637 353.335321,64.9466637 C352.14931,64.9466637 351.006765,64.7473958 349.906558,64.353376 C348.806351,63.9587916 347.831462,63.3525204 346.984714,62.5323043 C346.137967,61.7143462 345.461133,60.6688953 344.951956,59.398774 C344.443907,58.1286527 344.189883,56.5915237 344.189883,54.784 C344.189883,51.4540243 344.783171,48.6744344 345.967488,46.4441014 C347.153499,44.2148975 348.70587,42.4220507 350.6246,41.0678192 C352.542765,39.7130232 354.702536,38.7392635 357.102783,38.1454112 C359.501901,37.5532525 361.942792,37.2574553 364.427149,37.2574553 L366.967391,37.2574553 C367.192062,36.0161235 367.334315,35.0982492 367.390765,34.5055259 C367.447779,33.9116736 367.47544,33.4188666 367.47544,33.0237178 C367.47544,29.185129 365.753155,27.2658346 362.31028,27.2658346 C360.72912,27.2658346 359.205539,27.661548 357.737843,28.4512811 C356.268454,29.2421433 354.971802,30.202355 353.842805,31.3307872 L350.117116,25.5729041 C351.865932,23.7670739 353.9828,22.3129261 356.467722,21.2115899 C358.949821,20.1113826 361.378293,19.5604322 363.749186,19.5604322 C367.982924,19.5604322 371.058875,20.6188666 372.979299,22.7357354 C374.899722,24.8526042 375.861627,27.802108 375.861627,31.583118 Z M363.330329,43.6074972 C361.976097,43.6074972 360.647832,43.7768467 359.350051,44.1149813 C358.05114,44.4542448 356.894483,44.9905182 355.878386,45.724366 C354.862853,46.4587784 354.043766,47.431409 353.422818,48.645645 C352.800741,49.8593164 352.491396,51.3411246 352.491396,53.0910695 C352.491396,54.7845645 352.88598,56.0123484 353.678536,56.7732922 C354.46714,57.5359294 355.427352,57.9164013 356.557477,57.9164013 C357.855259,57.9164013 359.01361,57.5506064 360.029142,56.816194 C361.044675,56.0829107 361.934324,55.1368115 362.696397,53.9801544 C363.459034,52.8229327 364.094095,51.5528115 364.601579,50.1697905 C365.109627,48.7873341 365.475987,47.4178611 365.701786,46.063065 L366.12516,43.6074972 L363.330329,43.6074972 Z" id="Shape" fill="#000000"></path>
            <path d="M395.928979,70.1948049 C394.968767,72.3393341 394.010249,74.2733054 393.050037,75.9950254 C392.088697,77.7161808 390.98849,79.197989 389.746029,80.4404498 C388.505261,81.6812172 387.122805,82.6414289 385.596966,83.3193914 C384.073385,83.9973539 382.29465,84.3360529 380.263021,84.3360529 C379.246359,84.3360529 378.34542,84.2643616 377.552864,84.124366 C376.76426,83.9821125 376.058637,83.799215 375.435996,83.5739802 L377.129491,75.445204 C377.695118,75.7844675 378.625411,75.9532525 379.924322,75.9532525 C381.503224,75.9532525 382.745685,75.4869768 383.650011,74.5544256 C384.552644,73.6246968 385.371166,72.3105447 386.106143,70.6170496 L388.475907,65.1131907 L383.565901,20.997645 L393.050037,20.997645 L395.082232,53.766774 L395.251017,53.766774 L408.122708,20.997645 L417.521041,20.997645 L395.928979,70.1948049 Z" id="Path" fill="#000000"></path>
        </g>
    </g>
</svg>